<svg xmlns="http://www.w3.org/2000/svg" xmlns:xlink="http://www.w3.org/1999/xlink" width="28.482" height="23.433" viewBox="0 0 28.482 23.433">
  <defs>
    <clipPath id="clip-path">
      <rect id="Rectangle_15256" data-name="Rectangle 15256" width="23.206" height="23.433" fill="#fff"/>
    </clipPath>
  </defs>
  <g id="Group_35911" data-name="Group 35911" transform="translate(-47 -115.784)">
    <g id="Group_35879" data-name="Group 35879" transform="translate(47 115.784)">
      <g id="Group_35878" data-name="Group 35878" transform="translate(0 0)" clip-path="url(#clip-path)">
        <path id="Path_46354" data-name="Path 46354" d="M9.963,19.925a9.968,9.968,0,0,0,8.7-5.1.264.264,0,0,0,.018-.219.273.273,0,0,0-.155-.162.268.268,0,0,0-.1-.02.273.273,0,0,0-.238.14,9.425,9.425,0,0,1-8.226,4.822h-.1A9.42,9.42,0,1,1,18.179,5.363a.273.273,0,0,0,.238.141.268.268,0,0,0,.1-.02.273.273,0,0,0,.155-.162.268.268,0,0,0-.018-.219A9.968,9.968,0,1,0,9.7,19.922q.132,0,.264,0" transform="translate(1.754 1.754)" fill="#fff" stroke="#fff" stroke-width="0.7"/>
      </g>
    </g>
    <g id="noun-sports-car-152693" transform="translate(53.084 124.316)">
      <path id="Path_46355" data-name="Path 46355" d="M468.17,275.52a1.692,1.692,0,1,0,1.692,1.692A1.7,1.7,0,0,0,468.17,275.52Zm0,2.74a1.072,1.072,0,1,1,1.072-1.072A1.068,1.068,0,0,1,468.17,278.26Z" transform="translate(-450.322 -272.536)" fill="#fff"/>
      <path id="Path_46356" data-name="Path 46356" d="M144.146,296.24a.786.786,0,1,0,.786.786A.778.778,0,0,0,144.146,296.24Zm0,1.406a.6.6,0,1,1,.6-.6A.576.576,0,0,1,144.146,297.646Z" transform="translate(-140.953 -292.374)" fill="#fff"/>
      <path id="Path_46357" data-name="Path 46357" d="M488.546,296.24a.786.786,0,1,0,.786.786A.793.793,0,0,0,488.546,296.24Zm0,1.406a.6.6,0,1,1,.6-.6A.59.59,0,0,1,488.546,297.646Z" transform="translate(-470.699 -292.374)" fill="#fff"/>
      <path id="Path_46358" data-name="Path 46358" d="M123.77,275.52a1.692,1.692,0,1,0,1.692,1.692A1.7,1.7,0,0,0,123.77,275.52Zm0,2.859a1.168,1.168,0,1,1,1.168-1.168A1.169,1.169,0,0,1,123.77,278.379Z" transform="translate(-120.577 -272.536)" fill="#fff"/>
      <path id="Path_46359" data-name="Path 46359" d="M109.194,209.23c-.214-.167-.405-.31-.619-.453a14.556,14.556,0,0,0-1.406-.882,5.262,5.262,0,0,0-4.218-.6c-.477-.6-3.908-3.765-14.916-.357-.763.048-1.239.1-1.239.1s-.048,2.931,1.43,3.884a2.055,2.055,0,0,1-.191-.858,1.954,1.954,0,0,1,3.908,0,1.817,1.817,0,0,1-.286,1l11.366.167a1.956,1.956,0,1,1,3.527-1.168,1.9,1.9,0,0,1-.405,1.191h2.192a1.725,1.725,0,0,0,.405-.6,8.336,8.336,0,0,0,.31-.929,4.008,4.008,0,0,0,.143-.5Zm-22.041-1.453a.612.612,0,0,1-.191-.477,2.9,2.9,0,0,1,1.072-.071c.238.024-.786.6-.882.548Zm5.218-.858a14.32,14.32,0,0,1,2.693-.906l-.882,1.072c-.619-.071-1.239-.143-1.811-.167Zm2.121.214a.143.143,0,0,1-.1-.024l.953-1.168c.048,0,.1-.024.143-.024,3.932-.739,6.314.834,6.505,1.716a33.464,33.464,0,0,1-7.506-.5Zm13.582,3.074c-.071.238-.214.405-.286.381-.1-.024-.1-.238,0-.477.071-.238.214-.405.286-.381C108.17,209.754,108.17,209.969,108.074,210.207Zm-2.121-2.121a1.7,1.7,0,0,1,.929-.191,14.569,14.569,0,0,1,1.406.882A4.112,4.112,0,0,1,105.954,208.086Zm2.693,2.549c-.31-.143-.167-.929-.167-.929h.477A8.312,8.312,0,0,1,108.646,210.636Z" transform="translate(-86.796 -205.388)" fill="#fff"/>
    </g>
  </g>
</svg>
