<svg xmlns="http://www.w3.org/2000/svg" xmlns:xlink="http://www.w3.org/1999/xlink" width="18" height="18" viewBox="0 0 18 18">
  <defs>
    <clipPath id="clip-path">
      <rect id="Rectangle_15264" data-name="Rectangle 15264" width="18" height="18" fill="#fff"/>
    </clipPath>
  </defs>
  <g id="Mask_Group_9" data-name="Mask Group 9" clip-path="url(#clip-path)">
    <path id="Icon_awesome-calendar-check" data-name="Icon awesome-calendar-check" d="M12.54,4.6H.345A.345.345,0,0,1,0,4.257V3.221A1.381,1.381,0,0,1,1.381,1.841H2.761V.345A.345.345,0,0,1,3.106,0h1.15A.345.345,0,0,1,4.6.345v1.5H8.284V.345A.345.345,0,0,1,8.629,0h1.15a.345.345,0,0,1,.345.345v1.5H11.5a1.381,1.381,0,0,1,1.381,1.381V4.257A.345.345,0,0,1,12.54,4.6Zm-12.2.92h12.2a.345.345,0,0,1,.345.345v7.478A1.381,1.381,0,0,1,11.5,14.726H1.381A1.381,1.381,0,0,1,0,13.346V5.867A.345.345,0,0,1,.345,5.522Zm9.586,2.76-.81-.817a.345.345,0,0,0-.488,0l-3.05,3.025L4.261,9.155a.345.345,0,0,0-.488,0l-.817.81a.345.345,0,0,0,0,.488L5.33,12.847a.345.345,0,0,0,.488,0L9.93,8.77a.345.345,0,0,0,0-.488Z" transform="translate(2.557 1.637)" fill="#ed4c14"/>
  </g>
</svg>
