<svg xmlns="http://www.w3.org/2000/svg" xmlns:xlink="http://www.w3.org/1999/xlink" width="18" height="18" viewBox="0 0 18 18">
  <defs>
    <clipPath id="clip-path">
      <rect id="Rectangle_15264" data-name="Rectangle 15264" width="18" height="18" fill="#fff"/>
    </clipPath>
  </defs>
  <g id="Mask_Group_8" data-name="Mask Group 8" clip-path="url(#clip-path)">
    <g id="Group_35904" data-name="Group 35904" transform="translate(1.323 1.304)">
      <path id="Path_3881" data-name="Path 3881" d="M297.286,386.189l1.1-4.117a7.619,7.619,0,1,1,3.035,3.009Zm4.344-2.651.261.156a6.187,6.187,0,1,0-2.116-2.1l.16.263-.616,2.3Z" transform="translate(-297.286 -370.798)" fill="#4fcd5c"/>
      <path id="Path_3882" data-name="Path 3882" d="M313.224,384.884a1.278,1.278,0,0,0-1.088-.245c-.283.116-.464.559-.647.784a.271.271,0,0,1-.351.076,4.933,4.933,0,0,1-2.461-2.108.3.3,0,0,1,.038-.412,1.665,1.665,0,0,0,.447-.726,1.591,1.591,0,0,0-.2-.859,2.033,2.033,0,0,0-.634-.956.869.869,0,0,0-.944.14,1.917,1.917,0,0,0-.664,1.518,2.146,2.146,0,0,0,.06.482,3.989,3.989,0,0,0,.462,1.065,8.4,8.4,0,0,0,.483.733,7.444,7.444,0,0,0,2.092,1.943,6.354,6.354,0,0,0,1.3.62,2.9,2.9,0,0,0,1.519.24,1.839,1.839,0,0,0,1.377-1.024.891.891,0,0,0,.064-.523C314,385.273,313.516,385.059,313.224,384.884Z" transform="translate(-302.645 -376.225)" fill="#4fcd5c" fill-rule="evenodd"/>
    </g>
  </g>
</svg>
